<svg xmlns="http://www.w3.org/2000/svg" viewBox="0 0 30.00 30.11" data-guides="{&quot;vertical&quot;:[],&quot;horizontal&quot;:[]}">
<defs/>
<path fill="#000000" stroke="#000000" fill-opacity="1" stroke-width="1" stroke-opacity="1" title="Ellipse 1" d="M15 1C22.732 1 29 7.2927 29 15.0552C29 22.8177 22.732 29.1104 15 29.1104C7.268 29.1104 1 22.8177 1 15.0552C1 7.2927 7.268 1 15 1ZM18 4C18 3.4477 17.5523 3 17 3C17 3 13 3 13 3C12.4477 3 12 3.4477 12 4C12 4 12 11 12 11C12 11.5523 11.5523 12 11 12C11 12 4 12 4 12C3.4477 12 3 12.4477 3 13C3 13 3 17 3 17C3 17.5523 3.4477 18 4 18C4 18 11 18 11 18C11.5523 18 12 18.4477 12 19C12 19 12 26 12 26C12 26.5523 12.4477 27 13 27C13 27 17 27 17 27C17.5523 27 18 26.5523 18 26C18 26 18 19 18 19C18 18.4477 18.4477 18 19 18C19 18 26 18 26 18C26.5523 18 27 17.5523 27 17C27 17 27 13.1535 27 13.1535C27 12.6087 26.5639 12.1641 26.0192 12.1537C26.0192 12.1537 18.9808 12.0188 18.9808 12.0188C18.4361 12.0084 18 11.5638 18 11.019C18 11.019 18 4 18 4Z" id="tSvg3b911700cb" style="transform-origin: 15px 15.06px;"/>
</svg>