<svg xmlns="http://www.w3.org/2000/svg" viewBox="0 0 264.68 283.23" data-guides="{&quot;vertical&quot;:[],&quot;horizontal&quot;:[]}"><defs><linearGradient id="tSvgGradient146fafadcaa" x1="196.19" x2="66.30" y1="245.70" y2="34.62" fill="rgb(0, 0, 0)" gradientUnits="userSpaceOnUse"><stop offset="0" stop-color="hsl(269.892,100%,50%)" stop-opacity="1"/><stop offset="1" stop-color="hsl(115.27199999999999,95.89%,71.37%)" stop-opacity="1"/></linearGradient></defs><path fill="none" stroke="url(#tSvgGradient146fafadcaa)" fill-opacity="1" stroke-width="3" stroke-opacity="1" id="tSvg2141ece959" title="Path 2" d="M101.1844 19.5365C157.1521 6.7948 200.1895 16.5311 229.445 58.2739C261.9325 104.6277 253.2769 163.0017 227.4325 215.9483C186.8786 299.3161 121.1984 269.2267 43.0477 193.8411C-10.1365 142.5386 2.3497 42.0372 101.1844 19.5365Z" style=""/><path fill="#a8daa8" stroke="none" fill-opacity="1" stroke-width="1" stroke-opacity="1" id="tSvg4c163ae660" title="Path 1" d="M237.3665 67.5954C262.2447 119.8254 262.5362 164.3827 228.8599 202.5729C191.4637 244.9818 133.2199 249.5922 76.3437 236.0607C-13.1802 214.892 1.0636 143.466 56.1866 49.5742C93.6996 -14.3225 193.4335 -24.6386 237.3665 67.5954Z" style=""/><path fill="#7c57d9" stroke="none" fill-opacity="1" stroke-width="1" stroke-opacity="1" title="Ellipse 1" id="tSvg1c550b1615" d="M195.1111 31.978C242.5044 64.6429 264.8078 103.0834 254.5433 153.169C243.145 208.7874 194.9862 242.2026 139.0332 259.2156C51.0271 286.107 28.0144 217.0548 29.286 107.8961C30.1513 33.6099 111.4181 -25.7058 195.1111 31.978Z" style="transform-origin: -4769.47px -4860.35px;"/></svg>